<svg xmlns="http://www.w3.org/2000/svg" xmlns:xlink="http://www.w3.org/1999/xlink" color-interpolation-filters="sRGB" preserveAspectRatio="xMidYMid" version="1.0" viewBox="0 0 256 88"><rect width="100%" height="100%" fill="none" class="background"/><g fill="#3d85c6" class="newinitialsvg-g newinitialsvg"><g class="tp-name"><path d="M27.164 31.057v7.851h10.841c-.588 5.213-4.982 9.496-12.894 9.496-7.098 0-12.433-6.035-12.433-13.598 0-7.498 5.335-13.64 12.433-13.64 5.389 0 8.318 2.05 10.136 3.866l6.393-5.447c-3.688-3.75-8.382-6.805-16.475-6.805-11.782 0-21.286 9.849-21.286 22.026 0 12.252 9.504 22.09 21.286 22.09 11.44 0 21.05-8.257 21.05-17.988v-7.851z" data-gra="path-name"/><g class="tp-graph" mask="url(#a)" transform="matrix(1.028 0 0 1.0271 50.327 3.875)"><rect width="60.182" height="60.182" fill="#ff8300" data-gra="graph-name" rx="30.091"/><path fill="#ff8300" d="M5.994 51.524h8.948l6.207-19.62 8.939 20.404 8.938-20.292 6.207 19.508h8.948L40.82 8.768 30.088 33.637 19.355 8.768z" data-gra="path-name"/></g><path d="M137.586 56.95c11.729 0 21.222-9.838 21.222-22.08 0-12.188-9.493-22.026-21.222-22.026-11.781 0-21.286 9.838-21.286 22.026 0 12.242 9.505 22.08 21.286 22.08zm0-9.016c-6.97 0-12.54-5.8-12.54-13.064 0-7.21 5.57-13.01 12.54-13.01 6.918 0 12.488 5.8 12.488 13.01 0 7.264-5.57 13.064-12.488 13.064zM186.433 31.238c3.987-1.88 4.982-5.041 4.982-8.32 0-8.845-10.606-10.074-15.706-10.074h-12.786V56.78h13.374c5.1 0 18.058-1.464 18.058-14.41 0-5.33-3.111-9.432-7.922-11.13zm-15.535-3.631v-7.21h6.565c3.4 0 6.275.47 6.275 3.46 0 3.28-2.34 3.75-6.564 3.75zm5.977 21.502h-5.977V35.34h6.276c4.223 0 8.67 1.229 8.67 7.264 0 5.736-5.27 6.505-8.97 6.505zM198.464 56.832c9.087 0 14.658-4.273 14.658-17.102V12.844h-8.03V39.73c0 6.623-2.116 9.08-6.457 9.08zM217.235 34.806c0 12.188 9.494 22.614 21.286 22.614 5.153 0 9.9-1.934 13.6-5.096l-4.93-6.505c-2.405 1.88-5.217 3.173-8.852 3.173-7.74 0-12.37-7.093-12.37-14.186 0-7.082 4.63-14.175 12.37-14.175 3.635 0 6.511 1.229 8.853 3.162l4.928-6.494c-3.699-3.173-8.446-5.096-13.599-5.096-11.792 0-21.286 10.426-21.286 22.603z" data-gra="path-name"/></g><g class="tp-slogan" data-gra="path-slogan"><path fill="url(#b)" d="M0 4.478h77.044v1H0z" transform="matrix(1.028 0 0 1.0271 9.022 73.905)"/><path fill="url(#c)" d="M154.44 4.478h77.044v1H154.44z" transform="matrix(1.028 0 0 1.0271 9.022 73.905)"/><path fill="url(#f)" d="M3.98.14q-.74 0-1.36-.28Q2-.43 1.56-.97 1.12-1.5.87-2.26T.62-3.97t.25-1.7.69-1.27 1.06-.8 1.36-.28q.75 0 1.37.29.61.28 1.06.8t.7 1.27.25 1.69q0 .95-.25 1.71t-.7 1.29q-.45.54-1.06.83-.62.28-1.37.28zm0-.87q.53 0 .96-.23.42-.23.73-.65.31-.43.47-1.02.17-.6.17-1.34 0-.73-.17-1.32-.16-.59-.47-1t-.73-.63q-.43-.22-.96-.22-.52 0-.95.22t-.73.63q-.31.41-.48 1-.16.59-.16 1.32 0 .74.16 1.34.17.59.48 1.02.3.42.73.65t.95.23zm7.07.73v-7.87h2.41q.65 0 1.19.12t.92.39q.37.27.58.71.21.45.21 1.09 0 .63-.21 1.08-.21.46-.59.76t-.92.45q-.53.15-1.18.15h-1.42V0zm.99-3.94h1.3q1.03 0 1.53-.39t.5-1.23q0-.85-.51-1.18-.5-.33-1.52-.33h-1.3zM19.96 0v-7.87h4.54v.84h-3.54v2.47h2.98v.85h-2.98v2.86h3.66V0zm8.32 0v-7.87h1.04l2.84 4.94.85 1.63h.05q-.04-.6-.08-1.24t-.04-1.26v-4.07h.95V0h-1.03L30-4.96l-.85-1.62h-.05q.05.6.09 1.22t.04 1.24V0zm9.19-1.02.6-.7q.42.45.99.72t1.18.27q.78 0 1.22-.36.43-.35.43-.93 0-.3-.1-.51-.11-.21-.28-.36t-.41-.27-.52-.25l-1.13-.49q-.27-.12-.56-.29t-.52-.41-.37-.57-.14-.76q0-.44.18-.83.19-.38.52-.66t.78-.44.99-.16q.71 0 1.31.27t1.02.71l-.54.64q-.36-.34-.8-.54t-.99-.2q-.66 0-1.06.31-.41.3-.41.84 0 .29.12.49.11.2.3.35.2.15.42.26.23.11.47.21l1.12.48q.33.14.63.33t.52.43q.22.25.34.58.13.33.13.76 0 .47-.19.88-.18.4-.53.71t-.84.48-1.12.17q-.83 0-1.53-.31-.71-.31-1.23-.85zm8.24 0 .6-.7q.42.45.99.72t1.18.27q.78 0 1.22-.36.43-.35.43-.93 0-.3-.1-.51-.11-.21-.28-.36t-.41-.27-.52-.25l-1.13-.49q-.27-.12-.56-.29t-.52-.41-.37-.57-.14-.76q0-.44.18-.83.19-.38.52-.66t.78-.44.99-.16q.71 0 1.31.27t1.02.71l-.54.64q-.36-.34-.8-.54t-.99-.2q-.66 0-1.06.31-.41.3-.41.84 0 .29.12.49.11.2.3.35.2.15.42.26.23.11.47.21l1.12.48q.33.14.63.33t.52.43q.22.25.34.58.13.33.13.76 0 .47-.19.88-.18.4-.53.71t-.84.48-1.12.17q-.83 0-1.53-.31-.71-.31-1.23-.85zM54.7 0v-7.87h.99v7.02h3.45V0z" transform="matrix(1.2542 0 0 1.253 90.525 83.95)"/></g></g><mask id="a"><rect width="60.182" height="60.182" fill="#fff" data-gra="graph-name" rx="30.091"/><path d="M-1.1 0h8.78l6.09-19.25L22.54.77l8.77-19.91L37.4 0h8.78L33.07-41.95l-10.53 24.4-10.53-24.4z" data-gra="path-name" transform="translate(7.115 51.524) scale(1.0192)"/></mask><defs><linearGradient id="g" x2="0" y1="1"><stop offset="0" stop-color="#4481eb"/><stop offset="1" stop-color="#05befe"/></linearGradient><linearGradient xlink:href="#g" id="b" x2="0" y1="48.08" y2="39.302" gradientTransform="scale(8.7775 .11393)" gradientUnits="userSpaceOnUse"/><linearGradient xlink:href="#g" id="c" x1="17.595" x2="17.595" y1="48.08" y2="39.302" gradientTransform="scale(8.7775 .11393)" gradientUnits="userSpaceOnUse"/><linearGradient xlink:href="#g" id="f" x1=".232" x2=".232" y1=".375" y2="-21.477" gradientTransform="scale(2.678 .37342)" gradientUnits="userSpaceOnUse"/><linearGradient xlink:href="#g" id="e" x1="-.001" x2="-.001" y1="21.842" y2="-.011" gradientTransform="scale(2.678 .37342)" gradientUnits="userSpaceOnUse"/><linearGradient xlink:href="#g" id="d" x1="-.002" x2="-.002" y1="26.647" y2="-.013" gradientTransform="scale(2.678 .37342)" gradientUnits="userSpaceOnUse"/></defs></svg>