<svg xmlns="http://www.w3.org/2000/svg" xmlns:xlink="http://www.w3.org/1999/xlink" color-interpolation-filters="sRGB" preserveAspectRatio="xMidYMid" version="1.0" viewBox="0 0 48 48"><rect width="100%" height="100%" fill="none" class="background"/><g fill="#3d85c6" class="newinitialsvg-g newinitialsvg"><g class="tp-name"><path d="M11.46 18.737v3.193h4.403c-.239 2.119-2.024 3.86-5.238 3.86-2.883 0-5.05-2.453-5.05-5.528 0-3.049 2.167-5.546 5.05-5.546 2.19 0 3.38.834 4.118 1.572l2.597-2.215c-1.499-1.524-3.405-2.766-6.693-2.766C5.861 11.307 2 15.31 2 20.262c0 4.981 3.861 8.981 8.647 8.981 4.647 0 8.551-3.357 8.551-7.313v-3.193z" data-gra="path-name"/><g class="tp-graph" mask="url(#a)" transform="translate(20.869 7.686) scale(.4176)"><rect width="60.182" height="60.182" fill="#ff8300" data-gra="graph-name" rx="30.091"/><path fill="#ff8300" d="M5.994 51.524h8.948l6.207-19.62 8.939 20.404 8.938-20.292 6.207 19.508h8.948L40.82 8.768 30.088 33.637 19.355 8.768z" data-gra="path-name"/></g></g><g class="tp-slogan" data-gra="path-slogan"><path fill="url(#b)" d="M0 4.478h8.985v1H0z" transform="translate(4.09 36.159) scale(.4176)"/><path fill="url(#c)" d="M86.38 4.478h8.985v1H86.38z" transform="translate(4.09 36.159) scale(.4176)"/><path fill="url(#f)" d="M3.98.14q-.74 0-1.36-.28Q2-.43 1.56-.97 1.12-1.5.87-2.26T.62-3.97t.25-1.7.69-1.27 1.06-.8 1.36-.28q.75 0 1.37.29.61.28 1.06.8t.7 1.27.25 1.69q0 .95-.25 1.71t-.7 1.29q-.45.54-1.06.83-.62.28-1.37.28zm0-.87q.53 0 .96-.23.42-.23.73-.65.31-.43.47-1.02.17-.6.17-1.34 0-.73-.17-1.32-.16-.59-.47-1t-.73-.63q-.43-.22-.96-.22-.52 0-.95.22t-.73.63q-.31.41-.48 1-.16.59-.16 1.32 0 .74.16 1.34.17.59.48 1.02.3.42.73.65t.95.23zm7.07.73v-7.87h2.41q.65 0 1.19.12t.92.39q.37.27.58.71.21.45.21 1.09 0 .63-.21 1.08-.21.46-.59.76t-.92.45q-.53.15-1.18.15h-1.42V0zm.99-3.94h1.3q1.03 0 1.53-.39t.5-1.23q0-.85-.51-1.18-.5-.33-1.52-.33h-1.3zM19.96 0v-7.87h4.54v.84h-3.54v2.47h2.98v.85h-2.98v2.86h3.66V0zm8.32 0v-7.87h1.04l2.84 4.94.85 1.63h.05q-.04-.6-.08-1.24t-.04-1.26v-4.07h.95V0h-1.03L30-4.96l-.85-1.62h-.05q.05.6.09 1.22t.04 1.24V0zm9.19-1.02.6-.7q.42.45.99.72t1.18.27q.78 0 1.22-.36.43-.35.43-.93 0-.3-.1-.51-.11-.21-.28-.36t-.41-.27-.52-.25l-1.13-.49q-.27-.12-.56-.29t-.52-.41-.37-.57-.14-.76q0-.44.18-.83.19-.38.52-.66t.78-.44.99-.16q.71 0 1.31.27t1.02.71l-.54.64q-.36-.34-.8-.54t-.99-.2q-.66 0-1.06.31-.41.3-.41.84 0 .29.12.49.11.2.3.35.2.15.42.26.23.11.47.21l1.12.48q.33.14.63.33t.52.43q.22.25.34.58.13.33.13.76 0 .47-.19.88-.18.4-.53.71t-.84.48-1.12.17q-.83 0-1.53-.31-.71-.31-1.23-.85zm8.24 0 .6-.7q.42.45.99.72t1.18.27q.78 0 1.22-.36.43-.35.43-.93 0-.3-.1-.51-.11-.21-.28-.36t-.41-.27-.52-.25l-1.13-.49q-.27-.12-.56-.29t-.52-.41-.37-.57-.14-.76q0-.44.18-.83.19-.38.52-.66t.78-.44.99-.16q.71 0 1.31.27t1.02.71l-.54.64q-.36-.34-.8-.54t-.99-.2q-.66 0-1.06.31-.41.3-.41.84 0 .29.12.49.11.2.3.35.2.15.42.26.23.11.47.21l1.12.48q.33.14.63.33t.52.43q.22.25.34.58.13.33.13.76 0 .47-.19.88-.18.4-.53.71t-.84.48-1.12.17q-.83 0-1.53-.31-.71-.31-1.23-.85zM54.7 0v-7.87h.99v7.02h3.45V0z" transform="matrix(.5095 0 0 .5095 8.777 40.243)"/></g></g><mask id="a"><rect width="60.182" height="60.182" fill="#fff" data-gra="graph-name" rx="30.091"/><path d="M-1.1 0h8.78l6.09-19.25L22.54.77l8.77-19.91L37.4 0h8.78L33.07-41.95l-10.53 24.4-10.53-24.4z" data-gra="path-name" transform="translate(7.115 51.524) scale(1.0192)"/></mask><defs><linearGradient id="g" x2="0" y1="1"><stop offset="0" stop-color="#4481eb"/><stop offset="1" stop-color="#05befe"/></linearGradient><linearGradient xlink:href="#g" id="b" x2="0" y1="16.419" y2="13.422" gradientTransform="scale(2.9976 .3336)" gradientUnits="userSpaceOnUse"/><linearGradient xlink:href="#g" id="c" x1="28.817" x2="28.817" y1="16.419" y2="13.422" gradientTransform="scale(2.9976 .3336)" gradientUnits="userSpaceOnUse"/><linearGradient xlink:href="#g" id="f" x1=".232" x2=".232" y1=".375" y2="-21.477" gradientTransform="scale(2.678 .37342)" gradientUnits="userSpaceOnUse"/><linearGradient xlink:href="#g" id="e" x1="-.001" x2="-.001" y1="21.842" y2="-.011" gradientTransform="scale(2.678 .37342)" gradientUnits="userSpaceOnUse"/><linearGradient xlink:href="#g" id="d" x1="-.002" x2="-.002" y1="26.647" y2="-.013" gradientTransform="scale(2.678 .37342)" gradientUnits="userSpaceOnUse"/></defs></svg>